<svg xmlns="http://www.w3.org/2000/svg" width="22.043" height="22.043" viewBox="0 0 22.043 22.043">
  <g id="Icon_ionic-ios-arrow-dropleft" data-name="Icon ionic-ios-arrow-dropleft" transform="translate(24.918 24.918) rotate(180)">
    <path id="Pfad_20" data-name="Pfad 20" d="M18.654,10.267a.98.98,0,0,0-1.381,0l-4.826,4.841a.975.975,0,0,0-.03,1.346l4.755,4.77a.975.975,0,1,0,1.381-1.376l-4.037-4.1,4.143-4.1A.975.975,0,0,0,18.654,10.267Z" transform="translate(-2.465 -1.854)" fill="#d3c0a4" stroke="#d3c0a4" stroke-width="1"/>
    <path id="Pfad_21" data-name="Pfad 21" d="M13.9,3.375A10.522,10.522,0,1,0,24.418,13.9,10.52,10.52,0,0,0,13.9,3.375ZM20.19,20.19A8.9,8.9,0,1,1,7.6,7.6,8.9,8.9,0,1,1,20.19,20.19Z" fill="#d3c0a4" stroke="#d3c0a4" stroke-width="1"/>
  </g>
</svg>
